<svg id="visual" viewBox="0 0 900 900" width="900" height="900" xmlns="http://www.w3.org/2000/svg" xmlns:xlink="http://www.w3.org/1999/xlink" version="1.1"><rect x="0" y="0" width="900" height="900" fill="#001220"></rect><defs><linearGradient id="grad1_0" x1="0%" y1="100%" x2="100%" y2="0%"><stop offset="30%" stop-color="#fbae3c" stop-opacity="1"></stop><stop offset="70%" stop-color="#fbae3c" stop-opacity="1"></stop></linearGradient></defs><defs><linearGradient id="grad1_1" x1="0%" y1="100%" x2="100%" y2="0%"><stop offset="30%" stop-color="#fbae3c" stop-opacity="1"></stop><stop offset="70%" stop-color="#cc5867" stop-opacity="1"></stop></linearGradient></defs><defs><linearGradient id="grad1_2" x1="0%" y1="100%" x2="100%" y2="0%"><stop offset="30%" stop-color="#593762" stop-opacity="1"></stop><stop offset="70%" stop-color="#cc5867" stop-opacity="1"></stop></linearGradient></defs><defs><linearGradient id="grad1_3" x1="0%" y1="100%" x2="100%" y2="0%"><stop offset="30%" stop-color="#593762" stop-opacity="1"></stop><stop offset="70%" stop-color="#001220" stop-opacity="1"></stop></linearGradient></defs><defs><linearGradient id="grad2_0" x1="0%" y1="100%" x2="100%" y2="0%"><stop offset="30%" stop-color="#fbae3c" stop-opacity="1"></stop><stop offset="70%" stop-color="#fbae3c" stop-opacity="1"></stop></linearGradient></defs><defs><linearGradient id="grad2_1" x1="0%" y1="100%" x2="100%" y2="0%"><stop offset="30%" stop-color="#cc5867" stop-opacity="1"></stop><stop offset="70%" stop-color="#fbae3c" stop-opacity="1"></stop></linearGradient></defs><defs><linearGradient id="grad2_2" x1="0%" y1="100%" x2="100%" y2="0%"><stop offset="30%" stop-color="#cc5867" stop-opacity="1"></stop><stop offset="70%" stop-color="#593762" stop-opacity="1"></stop></linearGradient></defs><defs><linearGradient id="grad2_3" x1="0%" y1="100%" x2="100%" y2="0%"><stop offset="30%" stop-color="#001220" stop-opacity="1"></stop><stop offset="70%" stop-color="#593762" stop-opacity="1"></stop></linearGradient></defs><g transform="translate(900, 900)"><path d="M-509.1 0C-487 -62.8 -465 -125.5 -437 -181C-409 -236.5 -375.2 -284.8 -335.9 -335.9C-296.5 -387 -251.7 -441 -194.8 -470.4C-137.9 -499.7 -69 -504.4 0 -509.1L0 0Z" fill="#232745"></path><path d="M-381.8 0C-365.3 -47.1 -348.7 -94.1 -327.7 -135.8C-306.8 -177.4 -281.4 -213.6 -251.9 -251.9C-222.4 -290.3 -188.8 -330.8 -146.1 -352.8C-103.5 -374.8 -51.7 -378.3 0 -381.8L0 0Z" fill="#96446e"></path><path d="M-254.6 0C-243.5 -31.4 -232.5 -62.8 -218.5 -90.5C-204.5 -118.3 -187.6 -142.4 -167.9 -167.9C-148.3 -193.5 -125.9 -220.5 -97.4 -235.2C-69 -249.9 -34.5 -252.2 0 -254.6L0 0Z" fill="#f17c53"></path><path d="M-127.3 0C-121.8 -15.7 -116.2 -31.4 -109.2 -45.3C-102.3 -59.1 -93.8 -71.2 -84 -84C-74.1 -96.8 -62.9 -110.3 -48.7 -117.6C-34.5 -124.9 -17.2 -126.1 0 -127.3L0 0Z" fill="#fbae3c"></path></g><g transform="translate(0, 0)"><path d="M509.1 0C499.5 61.3 489.9 122.6 470.4 194.8C450.8 267.1 421.3 350.3 356.4 356.4C291.5 362.5 191.2 291.4 125.9 304C60.6 316.6 30.3 412.8 0 509.1L0 0Z" fill="#232745"></path><path d="M381.8 0C374.6 46 367.4 91.9 352.8 146.1C338.1 200.3 316 262.7 267.3 267.3C218.6 271.8 143.4 218.5 94.4 228C45.5 237.4 22.7 309.6 0 381.8L0 0Z" fill="#96446e"></path><path d="M254.6 0C249.8 30.6 245 61.3 235.2 97.4C225.4 133.5 210.6 175.2 178.2 178.2C145.7 181.2 95.6 145.7 63 152C30.3 158.3 15.2 206.4 0 254.6L0 0Z" fill="#f17c53"></path><path d="M127.3 0C124.9 15.3 122.5 30.6 117.6 48.7C112.7 66.8 105.3 87.6 89.1 89.1C72.9 90.6 47.8 72.8 31.5 76C15.2 79.1 7.6 103.2 0 127.3L0 0Z" fill="#fbae3c"></path></g></svg>